<svg xmlns="http://www.w3.org/2000/svg" viewBox="0 0 512 512">
  <defs>
    <linearGradient id="bg" x1="80" y1="40" x2="430" y2="470" gradientUnits="userSpaceOnUse">
      <stop stop-color="#6abf3c"/>
      <stop offset="1" stop-color="#245f2f"/>
    </linearGradient>
  </defs>
  <rect width="512" height="512" rx="104" fill="url(#bg)"/>
  <path d="M137 321c59-9 111-35 154-76 32-31 63-47 102-49-9 55-41 104-88 133-49 30-109 38-168 21v-29Z" fill="#fff" opacity=".96"/>
  <path d="M156 185c49 4 88 24 118 58-47 20-94 20-140-1 1-16 7-30 22-57Z" fill="#e8f5e0"/>
  <path d="M258 132c32 34 43 74 34 119-31-29-45-64-42-106l8-13Z" fill="#f7fff2"/>
  <text x="256" y="368" text-anchor="middle" font-family="Arial, Helvetica, sans-serif" font-size="112" font-weight="800" fill="#fff">EC</text>
</svg>
